<svg xmlns="http://www.w3.org/2000/svg" xmlns:xlink="http://www.w3.org/1999/xlink" contentStyleType="text/css" height="613px" preserveAspectRatio="none" style="width:1228px;height:613px;background:#FFFFFF;" version="1.1" viewBox="0 0 1228 613" width="1228px" zoomAndPan="magnify"><title>Risk Score Explanation (Phase 1)</title><defs/><g><text fill="#000000" font-family="sans-serif" font-size="14" font-weight="bold" lengthAdjust="spacing" textLength="221.7441" x="502.396" y="29.5332">Risk Score Explanation (Phase 1)</text><line style="stroke:#181818;stroke-width:0.5;stroke-dasharray:5.0,5.0;" x1="22" x2="22" y1="121.2188" y2="531.4375"/><line style="stroke:#181818;stroke-width:0.5;stroke-dasharray:5.0,5.0;" x1="224.522" x2="224.522" y1="121.2188" y2="531.4375"/><line style="stroke:#181818;stroke-width:0.5;stroke-dasharray:5.0,5.0;" x1="536.1895" x2="536.1895" y1="121.2188" y2="531.4375"/><line style="stroke:#181818;stroke-width:0.5;stroke-dasharray:5.0,5.0;" x1="776.8613" x2="776.8613" y1="121.2188" y2="531.4375"/><line style="stroke:#181818;stroke-width:0.5;stroke-dasharray:5.0,5.0;" x1="1075.8726" x2="1075.8726" y1="121.2188" y2="531.4375"/><line style="stroke:#181818;stroke-width:0.5;stroke-dasharray:5.0,5.0;" x1="1201.3018" x2="1201.3018" y1="121.2188" y2="531.4375"/><text fill="#000000" font-family="sans-serif" font-size="14" lengthAdjust="spacing" textLength="29.5586" x="5" y="118.1426">User</text><ellipse cx="22.7793" cy="52.1094" fill="#E2E2F0" rx="8" ry="8" style="stroke:#181818;stroke-width:0.5;"/><path d="M22.7793,60.1094 L22.7793,87.1094 M9.7793,68.1094 L35.7793,68.1094 M22.7793,87.1094 L9.7793,102.1094 M22.7793,87.1094 L35.7793,102.1094 " fill="none" style="stroke:#181818;stroke-width:0.5;"/><text fill="#000000" font-family="sans-serif" font-size="14" lengthAdjust="spacing" textLength="29.5586" x="5" y="544.9707">User</text><ellipse cx="22.7793" cy="556.5469" fill="#E2E2F0" rx="8" ry="8" style="stroke:#181818;stroke-width:0.5;"/><path d="M22.7793,564.5469 L22.7793,591.5469 M9.7793,572.5469 L35.7793,572.5469 M22.7793,591.5469 L9.7793,606.5469 M22.7793,591.5469 L35.7793,606.5469 " fill="none" style="stroke:#181818;stroke-width:0.5;"/><rect fill="#E2E2F0" height="31.6094" rx="2.5" ry="2.5" style="stroke:#181818;stroke-width:0.5;" width="70.0342" x="189.522" y="88.6094"/><text fill="#000000" font-family="sans-serif" font-size="14" lengthAdjust="spacing" textLength="56.0342" x="196.522" y="110.1426">Frontend</text><rect fill="#E2E2F0" height="31.6094" rx="2.5" ry="2.5" style="stroke:#181818;stroke-width:0.5;" width="70.0342" x="189.522" y="530.4375"/><text fill="#000000" font-family="sans-serif" font-size="14" lengthAdjust="spacing" textLength="56.0342" x="196.522" y="551.9707">Frontend</text><rect fill="#E2E2F0" height="31.6094" rx="2.5" ry="2.5" style="stroke:#181818;stroke-width:0.5;" width="125.2822" x="474.1895" y="88.6094"/><text fill="#000000" font-family="sans-serif" font-size="14" lengthAdjust="spacing" textLength="111.2822" x="481.1895" y="110.1426">Quarkus Backend</text><rect fill="#E2E2F0" height="31.6094" rx="2.5" ry="2.5" style="stroke:#181818;stroke-width:0.5;" width="125.2822" x="474.1895" y="530.4375"/><text fill="#000000" font-family="sans-serif" font-size="14" lengthAdjust="spacing" textLength="111.2822" x="481.1895" y="551.9707">Quarkus Backend</text><rect fill="#E2E2F0" height="31.6094" rx="2.5" ry="2.5" style="stroke:#181818;stroke-width:0.5;" width="77.0342" x="738.8613" y="88.6094"/><text fill="#000000" font-family="sans-serif" font-size="14" lengthAdjust="spacing" textLength="63.0342" x="745.8613" y="110.1426">AI Module</text><rect fill="#E2E2F0" height="31.6094" rx="2.5" ry="2.5" style="stroke:#181818;stroke-width:0.5;" width="77.0342" x="738.8613" y="530.4375"/><text fill="#000000" font-family="sans-serif" font-size="14" lengthAdjust="spacing" textLength="63.0342" x="745.8613" y="551.9707">AI Module</text><rect fill="#E2E2F0" height="49.2188" rx="2.5" ry="2.5" style="stroke:#181818;stroke-width:0.5;" width="105.793" x="1023.8726" y="71"/><text fill="#000000" font-family="sans-serif" font-size="14" lengthAdjust="spacing" textLength="83.2549" x="1035.1416" y="92.5332">Model Server</text><text fill="#000000" font-family="sans-serif" font-size="14" lengthAdjust="spacing" textLength="91.793" x="1030.8726" y="110.1426">(vLLM/Ollama)</text><rect fill="#E2E2F0" height="49.2188" rx="2.5" ry="2.5" style="stroke:#181818;stroke-width:0.5;" width="105.793" x="1023.8726" y="530.4375"/><text fill="#000000" font-family="sans-serif" font-size="14" lengthAdjust="spacing" textLength="83.2549" x="1035.1416" y="551.9707">Model Server</text><text fill="#000000" font-family="sans-serif" font-size="14" lengthAdjust="spacing" textLength="91.793" x="1030.8726" y="569.5801">(vLLM/Ollama)</text><rect fill="#E2E2F0" height="31.6094" rx="2.5" ry="2.5" style="stroke:#181818;stroke-width:0.5;" width="41.2344" x="1181.3018" y="88.6094"/><text fill="#000000" font-family="sans-serif" font-size="14" lengthAdjust="spacing" textLength="27.2344" x="1188.3018" y="110.1426">LLM</text><rect fill="#E2E2F0" height="31.6094" rx="2.5" ry="2.5" style="stroke:#181818;stroke-width:0.5;" width="41.2344" x="1181.3018" y="530.4375"/><text fill="#000000" font-family="sans-serif" font-size="14" lengthAdjust="spacing" textLength="27.2344" x="1188.3018" y="551.9707">LLM</text><polygon fill="#181818" points="212.5391,149.5703,222.5391,153.5703,212.5391,157.5703,216.5391,153.5703" style="stroke:#181818;stroke-width:1.0;"/><line style="stroke:#181818;stroke-width:1.0;" x1="22.7793" x2="218.5391" y1="153.5703" y2="153.5703"/><text fill="#000000" font-family="sans-serif" font-size="13" lengthAdjust="spacing" textLength="177.7598" x="34.7793" y="148.7139">Request risk score explanation</text><polygon fill="#181818" points="524.8306,179.9219,534.8306,183.9219,524.8306,187.9219,528.8306,183.9219" style="stroke:#181818;stroke-width:1.0;"/><line style="stroke:#181818;stroke-width:1.0;" x1="224.5391" x2="530.8306" y1="183.9219" y2="183.9219"/><text fill="#000000" font-family="sans-serif" font-size="13" lengthAdjust="spacing" textLength="288.2915" x="236.5391" y="179.0654">GET/POST explanation (e.g. account/risk context)</text><line style="stroke:#181818;stroke-width:1.0;" x1="536.8306" x2="578.8306" y1="214.2734" y2="214.2734"/><line style="stroke:#181818;stroke-width:1.0;" x1="578.8306" x2="578.8306" y1="214.2734" y2="227.2734"/><line style="stroke:#181818;stroke-width:1.0;" x1="537.8306" x2="578.8306" y1="227.2734" y2="227.2734"/><polygon fill="#181818" points="547.8306,223.2734,537.8306,227.2734,547.8306,231.2734,543.8306,227.2734" style="stroke:#181818;stroke-width:1.0;"/><text fill="#000000" font-family="sans-serif" font-size="13" lengthAdjust="spacing" textLength="226.5479" x="543.8306" y="209.417">Load risk score + explainability payload</text><polygon fill="#181818" points="765.3784,253.625,775.3784,257.625,765.3784,261.625,769.3784,257.625" style="stroke:#181818;stroke-width:1.0;"/><line style="stroke:#181818;stroke-width:1.0;" x1="536.8306" x2="771.3784" y1="257.625" y2="257.625"/><text fill="#000000" font-family="sans-serif" font-size="13" lengthAdjust="spacing" textLength="174.8843" x="569.6624" y="252.7686">Generate explanation(context)</text><line style="stroke:#181818;stroke-width:1.0;" x1="777.3784" x2="819.3784" y1="287.9766" y2="287.9766"/><line style="stroke:#181818;stroke-width:1.0;" x1="819.3784" x2="819.3784" y1="287.9766" y2="300.9766"/><line style="stroke:#181818;stroke-width:1.0;" x1="778.3784" x2="819.3784" y1="300.9766" y2="300.9766"/><polygon fill="#181818" points="788.3784,296.9766,778.3784,300.9766,788.3784,304.9766,784.3784,300.9766" style="stroke:#181818;stroke-width:1.0;"/><text fill="#000000" font-family="sans-serif" font-size="13" lengthAdjust="spacing" textLength="285.3906" x="784.3784" y="283.1201">Build prompt from risk score, bucket, components</text><polygon fill="#181818" points="1064.769,327.3281,1074.769,331.3281,1064.769,335.3281,1068.769,331.3281" style="stroke:#181818;stroke-width:1.0;"/><line style="stroke:#181818;stroke-width:1.0;" x1="777.3784" x2="1070.769" y1="331.3281" y2="331.3281"/><text fill="#000000" font-family="sans-serif" font-size="13" lengthAdjust="spacing" textLength="153.9053" x="850.1211" y="326.4717">Inference request (prompt)</text><polygon fill="#181818" points="1189.9189,357.6797,1199.9189,361.6797,1189.9189,365.6797,1193.9189,361.6797" style="stroke:#181818;stroke-width:1.0;"/><line style="stroke:#181818;stroke-width:1.0;" x1="1076.769" x2="1195.9189" y1="361.6797" y2="361.6797"/><text fill="#000000" font-family="sans-serif" font-size="13" lengthAdjust="spacing" textLength="101.1499" x="1088.769" y="356.8232">Forward to model</text><polygon fill="#181818" points="1087.769,388.0313,1077.769,392.0313,1087.769,396.0313,1083.769,392.0313" style="stroke:#181818;stroke-width:1.0;"/><line style="stroke:#181818;stroke-width:1.0;stroke-dasharray:2.0,2.0;" x1="1081.769" x2="1200.9189" y1="392.0313" y2="392.0313"/><text fill="#000000" font-family="sans-serif" font-size="13" lengthAdjust="spacing" textLength="85.998" x="1096.345" y="387.1748">Generated text</text><polygon fill="#181818" points="788.3784,418.3828,778.3784,422.3828,788.3784,426.3828,784.3784,422.3828" style="stroke:#181818;stroke-width:1.0;"/><line style="stroke:#181818;stroke-width:1.0;stroke-dasharray:2.0,2.0;" x1="782.3784" x2="1075.769" y1="422.3828" y2="422.3828"/><text fill="#000000" font-family="sans-serif" font-size="13" lengthAdjust="spacing" textLength="237.7769" x="808.1853" y="417.5264">Response (natural language explanation)</text><polygon fill="#181818" points="547.8306,448.7344,537.8306,452.7344,547.8306,456.7344,543.8306,452.7344" style="stroke:#181818;stroke-width:1.0;"/><line style="stroke:#181818;stroke-width:1.0;stroke-dasharray:2.0,2.0;" x1="541.8306" x2="776.3784" y1="452.7344" y2="452.7344"/><text fill="#000000" font-family="sans-serif" font-size="13" lengthAdjust="spacing" textLength="92.5044" x="610.8523" y="447.8779">Explanation text</text><polygon fill="#181818" points="235.5391,479.0859,225.5391,483.0859,235.5391,487.0859,231.5391,483.0859" style="stroke:#181818;stroke-width:1.0;"/><line style="stroke:#181818;stroke-width:1.0;stroke-dasharray:2.0,2.0;" x1="229.5391" x2="535.8306" y1="483.0859" y2="483.0859"/><text fill="#000000" font-family="sans-serif" font-size="13" lengthAdjust="spacing" textLength="170.5298" x="295.4199" y="478.2295">JSON response (explanation)</text><polygon fill="#181818" points="33.7793,509.4375,23.7793,513.4375,33.7793,517.4375,29.7793,513.4375" style="stroke:#181818;stroke-width:1.0;"/><line style="stroke:#181818;stroke-width:1.0;stroke-dasharray:2.0,2.0;" x1="27.7793" x2="223.5391" y1="513.4375" y2="513.4375"/><text fill="#000000" font-family="sans-serif" font-size="13" lengthAdjust="spacing" textLength="112.7344" x="67.292" y="508.5811">Display explanation</text><!--SRC=[NL9DKy8m4BttL-nmAgF8UENW31sfWqD5gTwyBEc26TAavaFXtxifHLjFoUIzVVlsRRpqYc0ZtG5AOIp1ujWerEYbqP0-Vw0Zk1qdxY1rWnPhSFGPI0igo3dSqrp9lGP1sfDDK7XZuStnbSbU2jcWzZ3AhM5SLoD01_bY2Bu4j8VW84Dnk72oVvpv4WfJ1KKjEbyEKOP8GKdsY-oxJhzMgsAwLWfh7BVyeXpo6M_V-KoIw1OcTsnh1fiuc_DWOnokZOF-uaZoHIHcJ7nOl4wVr-Lh7uQKRlOtW4AOeFsqrH1nxgCV9zblwSfWrMzmTTQG6hTIIN-21a-AELt9VCdTI9D5Fp2J_afpDXql2r9Lq5XJDnvsVFJwNCCsSBx-cZtLZT6yCDUL5kKCbdf7DguLR9T1UjOP9qKPIPpL379Zlz5Mu0tKCVE4Ns7IILnSCio-shBEruOST-IFbBBtO541Jx4F_7lw4vqdwLBg_y9MBgRHRUcnN3-npOlcG28_q-9IPt0l7KEdVfCV]--></g></svg>