<svg xmlns="http://www.w3.org/2000/svg" xmlns:xlink="http://www.w3.org/1999/xlink" contentStyleType="text/css" height="762px" preserveAspectRatio="none" style="width:1226px;height:762px;background:#FFFFFF;" version="1.1" viewBox="0 0 1226 762" width="1226px" zoomAndPan="magnify"><title>Document OCR Processing (Phase 1)</title><defs/><g><text fill="#000000" font-family="sans-serif" font-size="14" font-weight="bold" lengthAdjust="spacing" textLength="248.9512" x="490.4773" y="29.5332">Document OCR Processing (Phase 1)</text><line style="stroke:#181818;stroke-width:0.5;stroke-dasharray:5.0,5.0;" x1="22" x2="22" y1="124.8281" y2="665.1016"/><line style="stroke:#181818;stroke-width:0.5;stroke-dasharray:5.0,5.0;" x1="264.9883" x2="264.9883" y1="124.8281" y2="665.1016"/><line style="stroke:#181818;stroke-width:0.5;stroke-dasharray:5.0,5.0;" x1="452.3813" x2="452.3813" y1="124.8281" y2="665.1016"/><line style="stroke:#181818;stroke-width:0.5;stroke-dasharray:5.0,5.0;" x1="677.3706" x2="677.3706" y1="124.8281" y2="665.1016"/><line style="stroke:#181818;stroke-width:0.5;stroke-dasharray:5.0,5.0;" x1="960.2661" x2="960.2661" y1="124.8281" y2="665.1016"/><line style="stroke:#181818;stroke-width:0.5;stroke-dasharray:5.0,5.0;" x1="1161.7612" x2="1161.7612" y1="124.8281" y2="665.1016"/><text fill="#000000" font-family="sans-serif" font-size="14" lengthAdjust="spacing" textLength="29.5586" x="5" y="121.752">User</text><ellipse cx="22.7793" cy="55.7188" fill="#E2E2F0" rx="8" ry="8" style="stroke:#181818;stroke-width:0.5;"/><path d="M22.7793,63.7188 L22.7793,90.7188 M9.7793,71.7188 L35.7793,71.7188 M22.7793,90.7188 L9.7793,105.7188 M22.7793,90.7188 L35.7793,105.7188 " fill="none" style="stroke:#181818;stroke-width:0.5;"/><text fill="#000000" font-family="sans-serif" font-size="14" lengthAdjust="spacing" textLength="29.5586" x="5" y="678.6348">User</text><ellipse cx="22.7793" cy="690.2109" fill="#E2E2F0" rx="8" ry="8" style="stroke:#181818;stroke-width:0.5;"/><path d="M22.7793,698.2109 L22.7793,725.2109 M9.7793,706.2109 L35.7793,706.2109 M22.7793,725.2109 L9.7793,740.2109 M22.7793,725.2109 L35.7793,740.2109 " fill="none" style="stroke:#181818;stroke-width:0.5;"/><rect fill="#E2E2F0" height="31.6094" rx="2.5" ry="2.5" style="stroke:#181818;stroke-width:0.5;" width="70.0342" x="229.9883" y="92.2188"/><text fill="#000000" font-family="sans-serif" font-size="14" lengthAdjust="spacing" textLength="56.0342" x="236.9883" y="113.752">Frontend</text><rect fill="#E2E2F0" height="31.6094" rx="2.5" ry="2.5" style="stroke:#181818;stroke-width:0.5;" width="70.0342" x="229.9883" y="664.1016"/><text fill="#000000" font-family="sans-serif" font-size="14" lengthAdjust="spacing" textLength="56.0342" x="236.9883" y="685.6348">Frontend</text><rect fill="#E2E2F0" height="31.6094" rx="2.5" ry="2.5" style="stroke:#181818;stroke-width:0.5;" width="125.2822" x="390.3813" y="92.2188"/><text fill="#000000" font-family="sans-serif" font-size="14" lengthAdjust="spacing" textLength="111.2822" x="397.3813" y="113.752">Quarkus Backend</text><rect fill="#E2E2F0" height="31.6094" rx="2.5" ry="2.5" style="stroke:#181818;stroke-width:0.5;" width="125.2822" x="390.3813" y="664.1016"/><text fill="#000000" font-family="sans-serif" font-size="14" lengthAdjust="spacing" textLength="111.2822" x="397.3813" y="685.6348">Quarkus Backend</text><rect fill="#E2E2F0" height="31.6094" rx="2.5" ry="2.5" style="stroke:#181818;stroke-width:0.5;" width="77.0342" x="639.3706" y="92.2188"/><text fill="#000000" font-family="sans-serif" font-size="14" lengthAdjust="spacing" textLength="63.0342" x="646.3706" y="113.752">AI Module</text><rect fill="#E2E2F0" height="31.6094" rx="2.5" ry="2.5" style="stroke:#181818;stroke-width:0.5;" width="77.0342" x="639.3706" y="664.1016"/><text fill="#000000" font-family="sans-serif" font-size="14" lengthAdjust="spacing" textLength="63.0342" x="646.3706" y="685.6348">AI Module</text><rect fill="#E2E2F0" height="31.6094" rx="2.5" ry="2.5" style="stroke:#181818;stroke-width:0.5;" width="98.8135" x="911.2661" y="92.2188"/><text fill="#000000" font-family="sans-serif" font-size="14" lengthAdjust="spacing" textLength="84.8135" x="918.2661" y="113.752">OCR Pipeline</text><rect fill="#E2E2F0" height="31.6094" rx="2.5" ry="2.5" style="stroke:#181818;stroke-width:0.5;" width="98.8135" x="911.2661" y="664.1016"/><text fill="#000000" font-family="sans-serif" font-size="14" lengthAdjust="spacing" textLength="84.8135" x="918.2661" y="685.6348">OCR Pipeline</text><text fill="#000000" font-family="sans-serif" font-size="14" lengthAdjust="spacing" textLength="59.9307" x="1128.8682" y="104.1426">Database</text><text fill="#000000" font-family="sans-serif" font-size="14" lengthAdjust="spacing" textLength="122.1445" x="1097.7612" y="121.752">(MySQL/MongoDB)</text><path d="M1143.8335,53.6094 C1143.8335,43.6094 1161.8335,43.6094 1161.8335,43.6094 C1161.8335,43.6094 1179.8335,43.6094 1179.8335,53.6094 L1179.8335,79.6094 C1179.8335,89.6094 1161.8335,89.6094 1161.8335,89.6094 C1161.8335,89.6094 1143.8335,89.6094 1143.8335,79.6094 L1143.8335,53.6094 " fill="#E2E2F0" style="stroke:#181818;stroke-width:1.5;"/><path d="M1143.8335,53.6094 C1143.8335,63.6094 1161.8335,63.6094 1161.8335,63.6094 C1161.8335,63.6094 1179.8335,63.6094 1179.8335,53.6094 " fill="none" style="stroke:#181818;stroke-width:1.5;"/><text fill="#000000" font-family="sans-serif" font-size="14" lengthAdjust="spacing" textLength="59.9307" x="1128.8682" y="678.6348">Database</text><text fill="#000000" font-family="sans-serif" font-size="14" lengthAdjust="spacing" textLength="122.1445" x="1097.7612" y="696.2441">(MySQL/MongoDB)</text><path d="M1143.8335,709.3203 C1143.8335,699.3203 1161.8335,699.3203 1161.8335,699.3203 C1161.8335,699.3203 1179.8335,699.3203 1179.8335,709.3203 L1179.8335,735.3203 C1179.8335,745.3203 1161.8335,745.3203 1161.8335,745.3203 C1161.8335,745.3203 1143.8335,745.3203 1143.8335,735.3203 L1143.8335,709.3203 " fill="#E2E2F0" style="stroke:#181818;stroke-width:1.5;"/><path d="M1143.8335,709.3203 C1143.8335,719.3203 1161.8335,719.3203 1161.8335,719.3203 C1161.8335,719.3203 1179.8335,719.3203 1179.8335,709.3203 " fill="none" style="stroke:#181818;stroke-width:1.5;"/><polygon fill="#181818" points="253.0054,153.1797,263.0054,157.1797,253.0054,161.1797,257.0054,157.1797" style="stroke:#181818;stroke-width:1.0;"/><line style="stroke:#181818;stroke-width:1.0;" x1="22.7793" x2="259.0054" y1="157.1797" y2="157.1797"/><text fill="#000000" font-family="sans-serif" font-size="13" lengthAdjust="spacing" textLength="218.2261" x="34.7793" y="152.3232">Upload document (e.g. scanned PDF)</text><polygon fill="#181818" points="441.0225,183.5313,451.0225,187.5313,441.0225,191.5313,445.0225,187.5313" style="stroke:#181818;stroke-width:1.0;"/><line style="stroke:#181818;stroke-width:1.0;" x1="265.0054" x2="447.0225" y1="187.5313" y2="187.5313"/><text fill="#000000" font-family="sans-serif" font-size="13" lengthAdjust="spacing" textLength="164.0171" x="277.0054" y="182.6748">Upload document (multipart)</text><line style="stroke:#181818;stroke-width:1.0;" x1="453.0225" x2="495.0225" y1="217.8828" y2="217.8828"/><line style="stroke:#181818;stroke-width:1.0;" x1="495.0225" x2="495.0225" y1="217.8828" y2="230.8828"/><line style="stroke:#181818;stroke-width:1.0;" x1="454.0225" x2="495.0225" y1="230.8828" y2="230.8828"/><polygon fill="#181818" points="464.0225,226.8828,454.0225,230.8828,464.0225,234.8828,460.0225,230.8828" style="stroke:#181818;stroke-width:1.0;"/><text fill="#000000" font-family="sans-serif" font-size="13" lengthAdjust="spacing" textLength="179.188" x="460.0225" y="213.0264">Validate, store file (temp or S3)</text><line style="stroke:#181818;stroke-width:1.0;" x1="453.0225" x2="495.0225" y1="261.2344" y2="261.2344"/><line style="stroke:#181818;stroke-width:1.0;" x1="495.0225" x2="495.0225" y1="261.2344" y2="274.2344"/><line style="stroke:#181818;stroke-width:1.0;" x1="454.0225" x2="495.0225" y1="274.2344" y2="274.2344"/><polygon fill="#181818" points="464.0225,270.2344,454.0225,274.2344,464.0225,278.2344,460.0225,274.2344" style="stroke:#181818;stroke-width:1.0;"/><text fill="#000000" font-family="sans-serif" font-size="13" lengthAdjust="spacing" textLength="140.1816" x="460.0225" y="256.3779">Create document record</text><polygon fill="#181818" points="1149.8335,300.5859,1159.8335,304.5859,1149.8335,308.5859,1153.8335,304.5859" style="stroke:#181818;stroke-width:1.0;"/><line style="stroke:#181818;stroke-width:1.0;" x1="453.0225" x2="1155.8335" y1="304.5859" y2="304.5859"/><text fill="#000000" font-family="sans-serif" font-size="13" lengthAdjust="spacing" textLength="149.5889" x="732.6335" y="299.7295">Store document metadata</text><polygon fill="#181818" points="276.0054,330.9375,266.0054,334.9375,276.0054,338.9375,272.0054,334.9375" style="stroke:#181818;stroke-width:1.0;"/><line style="stroke:#181818;stroke-width:1.0;stroke-dasharray:2.0,2.0;" x1="270.0054" x2="452.0225" y1="334.9375" y2="334.9375"/><text fill="#000000" font-family="sans-serif" font-size="13" lengthAdjust="spacing" textLength="163.2871" x="277.3704" y="330.0811">Document stored (id, status)</text><polygon fill="#181818" points="665.8877,361.2891,675.8877,365.2891,665.8877,369.2891,669.8877,365.2891" style="stroke:#181818;stroke-width:1.0;"/><line style="stroke:#181818;stroke-width:1.0;" x1="453.0225" x2="671.8877" y1="365.2891" y2="365.2891"/><text fill="#000000" font-family="sans-serif" font-size="13" lengthAdjust="spacing" textLength="198.6943" x="466.1079" y="360.4326">Trigger OCR pipeline(documentId)</text><polygon fill="#181818" points="948.6729,391.6406,958.6729,395.6406,948.6729,399.6406,952.6729,395.6406" style="stroke:#181818;stroke-width:1.0;"/><line style="stroke:#181818;stroke-width:1.0;" x1="677.8877" x2="954.6729" y1="395.6406" y2="395.6406"/><text fill="#000000" font-family="sans-serif" font-size="13" lengthAdjust="spacing" textLength="132.939" x="752.8108" y="390.7842">Process document(file)</text><line style="stroke:#181818;stroke-width:1.0;" x1="960.6729" x2="1002.6729" y1="425.9922" y2="425.9922"/><line style="stroke:#181818;stroke-width:1.0;" x1="1002.6729" x2="1002.6729" y1="425.9922" y2="438.9922"/><line style="stroke:#181818;stroke-width:1.0;" x1="961.6729" x2="1002.6729" y1="438.9922" y2="438.9922"/><polygon fill="#181818" points="971.6729,434.9922,961.6729,438.9922,971.6729,442.9922,967.6729,438.9922" style="stroke:#181818;stroke-width:1.0;"/><text fill="#000000" font-family="sans-serif" font-size="13" lengthAdjust="spacing" textLength="187.1606" x="967.6729" y="421.1357">Image preprocessing (if needed)</text><line style="stroke:#181818;stroke-width:1.0;" x1="960.6729" x2="1002.6729" y1="469.3438" y2="469.3438"/><line style="stroke:#181818;stroke-width:1.0;" x1="1002.6729" x2="1002.6729" y1="469.3438" y2="482.3438"/><line style="stroke:#181818;stroke-width:1.0;" x1="961.6729" x2="1002.6729" y1="482.3438" y2="482.3438"/><polygon fill="#181818" points="971.6729,478.3438,961.6729,482.3438,971.6729,486.3438,967.6729,482.3438" style="stroke:#181818;stroke-width:1.0;"/><text fill="#000000" font-family="sans-serif" font-size="13" lengthAdjust="spacing" textLength="148.8271" x="967.6729" y="464.4873">Extract text (OCR engine)</text><polygon fill="#181818" points="688.8877,508.6953,678.8877,512.6953,688.8877,516.6953,684.8877,512.6953" style="stroke:#181818;stroke-width:1.0;"/><line style="stroke:#181818;stroke-width:1.0;stroke-dasharray:2.0,2.0;" x1="682.8877" x2="959.6729" y1="512.6953" y2="512.6953"/><text fill="#000000" font-family="sans-serif" font-size="13" lengthAdjust="spacing" textLength="107.6563" x="765.4521" y="507.8389">Raw extracted text</text><line style="stroke:#181818;stroke-width:1.0;" x1="677.8877" x2="719.8877" y1="543.0469" y2="543.0469"/><line style="stroke:#181818;stroke-width:1.0;" x1="719.8877" x2="719.8877" y1="543.0469" y2="556.0469"/><line style="stroke:#181818;stroke-width:1.0;" x1="678.8877" x2="719.8877" y1="556.0469" y2="556.0469"/><polygon fill="#181818" points="688.8877,552.0469,678.8877,556.0469,688.8877,560.0469,684.8877,556.0469" style="stroke:#181818;stroke-width:1.0;"/><text fill="#000000" font-family="sans-serif" font-size="13" lengthAdjust="spacing" textLength="268.7852" x="684.8877" y="538.1904">Extract structured financial data (rules/parsing)</text><polygon fill="#181818" points="1149.8335,582.3984,1159.8335,586.3984,1149.8335,590.3984,1153.8335,586.3984" style="stroke:#181818;stroke-width:1.0;"/><line style="stroke:#181818;stroke-width:1.0;" x1="677.8877" x2="1155.8335" y1="586.3984" y2="586.3984"/><text fill="#000000" font-family="sans-serif" font-size="13" lengthAdjust="spacing" textLength="166.5688" x="836.5762" y="581.542">Store extracted data + status</text><polygon fill="#181818" points="464.0225,612.75,454.0225,616.75,464.0225,620.75,460.0225,616.75" style="stroke:#181818;stroke-width:1.0;"/><line style="stroke:#181818;stroke-width:1.0;stroke-dasharray:2.0,2.0;" x1="458.0225" x2="676.8877" y1="616.75" y2="616.75"/><text fill="#000000" font-family="sans-serif" font-size="13" lengthAdjust="spacing" textLength="200.8652" x="465.0225" y="611.8936">Pipeline complete (success/failure)</text><polygon fill="#181818" points="1149.8335,643.1016,1159.8335,647.1016,1149.8335,651.1016,1153.8335,647.1016" style="stroke:#181818;stroke-width:1.0;"/><line style="stroke:#181818;stroke-width:1.0;" x1="453.0225" x2="1155.8335" y1="647.1016" y2="647.1016"/><text fill="#000000" font-family="sans-serif" font-size="13" lengthAdjust="spacing" textLength="213.167" x="700.8445" y="642.2451">Update document status (processed)</text><!--SRC=[RPBBRjim44Nt_8g1LnJQnYYwywA05Tc0WHXruhghR5Xoh12cI9OFDFtx3cNAZw8xGNCuS- -TIJePXCx9FA1DyEtn1NR1IOnHsnxuxar4XCyDYoTjlGXYW8Y_Cbg9Ms94ZqkZUmkI7cDWGYONu13fa-2afVQ2kixMmL7TgXc82ElLVV4vYt3A4LeXJnFJ_iCiDx1rAXiSgylDVNLKhJqQRSy0_M1A9F6pg9zrzUlLyksV_VFJVEjixxgs6TckPQmeXazVITe23juueK1DaN1yw1yWIc4jAjXrwuQjLmLk_mSFsIHTn3MilL0_XD4a1pz2f7mGZfeovma73nJN_iij-nYGo6l7WD85LO6kNS1-R76f3vX4iJeIrS9bdUCu1LohCbga71jMMoqt2_WUTD-JyvAVh_dngVD6DOnY9vJAY-agBeDvCT6mydH2DWFT0_Y0_kQ2z14iea9rpwxUKw1hWOJlb5gfeErfVAMgm1Vn6_1Caet2LacbEBM8AMIPSZ5wr5POgOM14WdmG1SJvxIEecMoSmtnsdh4FzICHgwkOpeha6xm1capF6PPtCsFGXkQsjpivk3LtVBE_O3NG2Y4lm00]--></g></svg>