<svg xmlns="http://www.w3.org/2000/svg" xmlns:xlink="http://www.w3.org/1999/xlink" contentStyleType="text/css" height="613px" preserveAspectRatio="none" style="width:1278px;height:613px;background:#FFFFFF;" version="1.1" viewBox="0 0 1278 613" width="1278px" zoomAndPan="magnify"><title>Portfolio Recommendation Explanation (Phase 1)</title><defs/><g><text fill="#000000" font-family="sans-serif" font-size="14" font-weight="bold" lengthAdjust="spacing" textLength="328.2686" x="474.2305" y="29.5332">Portfolio Recommendation Explanation (Phase 1)</text><line style="stroke:#181818;stroke-width:0.5;stroke-dasharray:5.0,5.0;" x1="22" x2="22" y1="121.2188" y2="531.4375"/><line style="stroke:#181818;stroke-width:0.5;stroke-dasharray:5.0,5.0;" x1="273.6909" x2="273.6909" y1="121.2188" y2="531.4375"/><line style="stroke:#181818;stroke-width:0.5;stroke-dasharray:5.0,5.0;" x1="582.4575" x2="582.4575" y1="121.2188" y2="531.4375"/><line style="stroke:#181818;stroke-width:0.5;stroke-dasharray:5.0,5.0;" x1="864.6685" x2="864.6685" y1="121.2188" y2="531.4375"/><line style="stroke:#181818;stroke-width:0.5;stroke-dasharray:5.0,5.0;" x1="1126.0659" x2="1126.0659" y1="121.2188" y2="531.4375"/><line style="stroke:#181818;stroke-width:0.5;stroke-dasharray:5.0,5.0;" x1="1251.4951" x2="1251.4951" y1="121.2188" y2="531.4375"/><text fill="#000000" font-family="sans-serif" font-size="14" lengthAdjust="spacing" textLength="29.5586" x="5" y="118.1426">User</text><ellipse cx="22.7793" cy="52.1094" fill="#E2E2F0" rx="8" ry="8" style="stroke:#181818;stroke-width:0.5;"/><path d="M22.7793,60.1094 L22.7793,87.1094 M9.7793,68.1094 L35.7793,68.1094 M22.7793,87.1094 L9.7793,102.1094 M22.7793,87.1094 L35.7793,102.1094 " fill="none" style="stroke:#181818;stroke-width:0.5;"/><text fill="#000000" font-family="sans-serif" font-size="14" lengthAdjust="spacing" textLength="29.5586" x="5" y="544.9707">User</text><ellipse cx="22.7793" cy="556.5469" fill="#E2E2F0" rx="8" ry="8" style="stroke:#181818;stroke-width:0.5;"/><path d="M22.7793,564.5469 L22.7793,591.5469 M9.7793,572.5469 L35.7793,572.5469 M22.7793,591.5469 L9.7793,606.5469 M22.7793,591.5469 L35.7793,606.5469 " fill="none" style="stroke:#181818;stroke-width:0.5;"/><rect fill="#E2E2F0" height="31.6094" rx="2.5" ry="2.5" style="stroke:#181818;stroke-width:0.5;" width="70.0342" x="238.6909" y="88.6094"/><text fill="#000000" font-family="sans-serif" font-size="14" lengthAdjust="spacing" textLength="56.0342" x="245.6909" y="110.1426">Frontend</text><rect fill="#E2E2F0" height="31.6094" rx="2.5" ry="2.5" style="stroke:#181818;stroke-width:0.5;" width="70.0342" x="238.6909" y="530.4375"/><text fill="#000000" font-family="sans-serif" font-size="14" lengthAdjust="spacing" textLength="56.0342" x="245.6909" y="551.9707">Frontend</text><rect fill="#E2E2F0" height="31.6094" rx="2.5" ry="2.5" style="stroke:#181818;stroke-width:0.5;" width="125.2822" x="520.4575" y="88.6094"/><text fill="#000000" font-family="sans-serif" font-size="14" lengthAdjust="spacing" textLength="111.2822" x="527.4575" y="110.1426">Quarkus Backend</text><rect fill="#E2E2F0" height="31.6094" rx="2.5" ry="2.5" style="stroke:#181818;stroke-width:0.5;" width="125.2822" x="520.4575" y="530.4375"/><text fill="#000000" font-family="sans-serif" font-size="14" lengthAdjust="spacing" textLength="111.2822" x="527.4575" y="551.9707">Quarkus Backend</text><rect fill="#E2E2F0" height="31.6094" rx="2.5" ry="2.5" style="stroke:#181818;stroke-width:0.5;" width="77.0342" x="826.6685" y="88.6094"/><text fill="#000000" font-family="sans-serif" font-size="14" lengthAdjust="spacing" textLength="63.0342" x="833.6685" y="110.1426">AI Module</text><rect fill="#E2E2F0" height="31.6094" rx="2.5" ry="2.5" style="stroke:#181818;stroke-width:0.5;" width="77.0342" x="826.6685" y="530.4375"/><text fill="#000000" font-family="sans-serif" font-size="14" lengthAdjust="spacing" textLength="63.0342" x="833.6685" y="551.9707">AI Module</text><rect fill="#E2E2F0" height="49.2188" rx="2.5" ry="2.5" style="stroke:#181818;stroke-width:0.5;" width="105.793" x="1074.0659" y="71"/><text fill="#000000" font-family="sans-serif" font-size="14" lengthAdjust="spacing" textLength="83.2549" x="1085.335" y="92.5332">Model Server</text><text fill="#000000" font-family="sans-serif" font-size="14" lengthAdjust="spacing" textLength="91.793" x="1081.0659" y="110.1426">(vLLM/Ollama)</text><rect fill="#E2E2F0" height="49.2188" rx="2.5" ry="2.5" style="stroke:#181818;stroke-width:0.5;" width="105.793" x="1074.0659" y="530.4375"/><text fill="#000000" font-family="sans-serif" font-size="14" lengthAdjust="spacing" textLength="83.2549" x="1085.335" y="551.9707">Model Server</text><text fill="#000000" font-family="sans-serif" font-size="14" lengthAdjust="spacing" textLength="91.793" x="1081.0659" y="569.5801">(vLLM/Ollama)</text><rect fill="#E2E2F0" height="31.6094" rx="2.5" ry="2.5" style="stroke:#181818;stroke-width:0.5;" width="41.2344" x="1231.4951" y="88.6094"/><text fill="#000000" font-family="sans-serif" font-size="14" lengthAdjust="spacing" textLength="27.2344" x="1238.4951" y="110.1426">LLM</text><rect fill="#E2E2F0" height="31.6094" rx="2.5" ry="2.5" style="stroke:#181818;stroke-width:0.5;" width="41.2344" x="1231.4951" y="530.4375"/><text fill="#000000" font-family="sans-serif" font-size="14" lengthAdjust="spacing" textLength="27.2344" x="1238.4951" y="551.9707">LLM</text><polygon fill="#181818" points="261.708,149.5703,271.708,153.5703,261.708,157.5703,265.708,153.5703" style="stroke:#181818;stroke-width:1.0;"/><line style="stroke:#181818;stroke-width:1.0;" x1="22.7793" x2="267.708" y1="153.5703" y2="153.5703"/><text fill="#000000" font-family="sans-serif" font-size="13" lengthAdjust="spacing" textLength="226.9287" x="34.7793" y="148.7139">Request portfolio allocation explanation</text><polygon fill="#181818" points="571.0986,179.9219,581.0986,183.9219,571.0986,187.9219,575.0986,183.9219" style="stroke:#181818;stroke-width:1.0;"/><line style="stroke:#181818;stroke-width:1.0;" x1="273.708" x2="577.0986" y1="183.9219" y2="183.9219"/><text fill="#000000" font-family="sans-serif" font-size="13" lengthAdjust="spacing" textLength="285.3906" x="285.708" y="179.0654">GET/POST explanation (e.g. allocation summary)</text><line style="stroke:#181818;stroke-width:1.0;" x1="583.0986" x2="625.0986" y1="214.2734" y2="214.2734"/><line style="stroke:#181818;stroke-width:1.0;" x1="625.0986" x2="625.0986" y1="214.2734" y2="227.2734"/><line style="stroke:#181818;stroke-width:1.0;" x1="584.0986" x2="625.0986" y1="227.2734" y2="227.2734"/><polygon fill="#181818" points="594.0986,223.2734,584.0986,227.2734,594.0986,231.2734,590.0986,227.2734" style="stroke:#181818;stroke-width:1.0;"/><text fill="#000000" font-family="sans-serif" font-size="13" lengthAdjust="spacing" textLength="268.0869" x="590.0986" y="209.417">Load allocation (categories, funds, risk bucket)</text><polygon fill="#181818" points="853.1855,253.625,863.1855,257.625,853.1855,261.625,857.1855,257.625" style="stroke:#181818;stroke-width:1.0;"/><line style="stroke:#181818;stroke-width:1.0;" x1="583.0986" x2="859.1855" y1="257.625" y2="257.625"/><text fill="#000000" font-family="sans-serif" font-size="13" lengthAdjust="spacing" textLength="233.4224" x="607.4309" y="252.7686">Generate explanation(allocation context)</text><line style="stroke:#181818;stroke-width:1.0;" x1="865.1855" x2="907.1855" y1="287.9766" y2="287.9766"/><line style="stroke:#181818;stroke-width:1.0;" x1="907.1855" x2="907.1855" y1="287.9766" y2="300.9766"/><line style="stroke:#181818;stroke-width:1.0;" x1="866.1855" x2="907.1855" y1="300.9766" y2="300.9766"/><polygon fill="#181818" points="876.1855,296.9766,866.1855,300.9766,876.1855,304.9766,872.1855,300.9766" style="stroke:#181818;stroke-width:1.0;"/><text fill="#000000" font-family="sans-serif" font-size="13" lengthAdjust="spacing" textLength="235.1807" x="872.1855" y="283.1201">Build prompt from allocation + risk profile</text><polygon fill="#181818" points="1114.9624,327.3281,1124.9624,331.3281,1114.9624,335.3281,1118.9624,331.3281" style="stroke:#181818;stroke-width:1.0;"/><line style="stroke:#181818;stroke-width:1.0;" x1="865.1855" x2="1120.9624" y1="331.3281" y2="331.3281"/><text fill="#000000" font-family="sans-serif" font-size="13" lengthAdjust="spacing" textLength="153.9053" x="919.1213" y="326.4717">Inference request (prompt)</text><polygon fill="#181818" points="1240.1123,357.6797,1250.1123,361.6797,1240.1123,365.6797,1244.1123,361.6797" style="stroke:#181818;stroke-width:1.0;"/><line style="stroke:#181818;stroke-width:1.0;" x1="1126.9624" x2="1246.1123" y1="361.6797" y2="361.6797"/><text fill="#000000" font-family="sans-serif" font-size="13" lengthAdjust="spacing" textLength="101.1499" x="1138.9624" y="356.8232">Forward to model</text><polygon fill="#181818" points="1137.9624,388.0313,1127.9624,392.0313,1137.9624,396.0313,1133.9624,392.0313" style="stroke:#181818;stroke-width:1.0;"/><line style="stroke:#181818;stroke-width:1.0;stroke-dasharray:2.0,2.0;" x1="1131.9624" x2="1251.1123" y1="392.0313" y2="392.0313"/><text fill="#000000" font-family="sans-serif" font-size="13" lengthAdjust="spacing" textLength="85.998" x="1146.5383" y="387.1748">Generated text</text><polygon fill="#181818" points="876.1855,418.3828,866.1855,422.3828,876.1855,426.3828,872.1855,422.3828" style="stroke:#181818;stroke-width:1.0;"/><line style="stroke:#181818;stroke-width:1.0;stroke-dasharray:2.0,2.0;" x1="870.1855" x2="1125.9624" y1="422.3828" y2="422.3828"/><text fill="#000000" font-family="sans-serif" font-size="13" lengthAdjust="spacing" textLength="237.7769" x="877.1855" y="417.5264">Response (natural language explanation)</text><polygon fill="#181818" points="594.0986,448.7344,584.0986,452.7344,594.0986,456.7344,590.0986,452.7344" style="stroke:#181818;stroke-width:1.0;"/><line style="stroke:#181818;stroke-width:1.0;stroke-dasharray:2.0,2.0;" x1="588.0986" x2="864.1855" y1="452.7344" y2="452.7344"/><text fill="#000000" font-family="sans-serif" font-size="13" lengthAdjust="spacing" textLength="92.5044" x="677.8899" y="447.8779">Explanation text</text><polygon fill="#181818" points="284.708,479.0859,274.708,483.0859,284.708,487.0859,280.708,483.0859" style="stroke:#181818;stroke-width:1.0;"/><line style="stroke:#181818;stroke-width:1.0;stroke-dasharray:2.0,2.0;" x1="278.708" x2="582.0986" y1="483.0859" y2="483.0859"/><text fill="#000000" font-family="sans-serif" font-size="13" lengthAdjust="spacing" textLength="170.5298" x="343.1384" y="478.2295">JSON response (explanation)</text><polygon fill="#181818" points="33.7793,509.4375,23.7793,513.4375,33.7793,517.4375,29.7793,513.4375" style="stroke:#181818;stroke-width:1.0;"/><line style="stroke:#181818;stroke-width:1.0;stroke-dasharray:2.0,2.0;" x1="27.7793" x2="272.708" y1="513.4375" y2="513.4375"/><text fill="#000000" font-family="sans-serif" font-size="13" lengthAdjust="spacing" textLength="112.7344" x="91.8765" y="508.5811">Display explanation</text><!--SRC=[NLBBJkim4DtdAqQiKbqUOji5KgFReAA65WAxkncIIR3gs65iy_ZxEtaKN5PZ-PmpZpFZbTS4Uyk-iLfPUAJATXsP6hso1jQVlKOplTFzApg2wqNY3ihqoDY1exT0fgA2dCEMLbgr1YeodZZ1obk6PoTF8NjLgHwDXxEShU2cFWDqaAzFmOU0V0WECgmEHqxsYxFQG67he6b4LvjJL23IK1A_4_ypwVjsMrpjjCOE5oE_A4_vWe__4fDaw1OkRgIjfLWXipaF_RSvgBMj9ZFenvWaNm-IJ2ItwwUh_QvyYc58wRAzZBKkT1toroB9leLRYtLCIILIQrcHEuScc5e2AtU0bo2- -ADqjP6QP8Y57TTCerJLuFQdICIsMP85fMlesNQzXqP2NFhFL4ZGHccQLKMvX8rfY8Tb0y_Ef5EAHLAK0qaSN49k-GEv1c-X6pQHo2zSp2cElGeiBOsokQL7ShqrSbwfJ10ODSWiRP2RYkUQXfWzYszpJ3TuCk_khjpTIvl7d2Sfyeash7e9VvKJw2ikyXy0]--></g></svg>